{
  "accessors": [
    {
      "bufferView": 2,
      "componentType": 5126,
      "count": 1289,
      "max": [
        0.055862784385681152,
        0.11306177824735641,
        0.015517830848693848
      ],
      "min": [
        -0.05613214522600174,
        -0.11265549063682556,
        -0.014704093337059021
      ],
      "type": "VEC3"
    },
    {
      "bufferView": 2,
      "byteOffset": 15468,
      "componentType": 5126,
      "count": 1289,
      "max": [
        0.99780726432800293,
        1,
        1
      ],
      "min": [
        -0.99996298551559448,
        -1,
        -0.99999827146530151
      ],
      "type": "VEC3"
    },
    {
      "bufferView": 3,
      "componentType": 5126,
      "count": 1289,
      "max": [
        1,
        0.99998503923416138,
        0.99998295307159424,
        1
      ],
      "min": [
        -0.99999922513961792,
        -0.99999541044235229,
        -0.99997687339782715,
        1
      ],
      "type": "VEC4"
    },
    {
      "bufferView": 1,
      "componentType": 5126,
      "count": 1289,
      "max": [
        0.99980854988098145,
        0.91835278272628784
      ],
      "min": [
        0.0001914108288474381,
        0.0001914108288474381
      ],
      "type": "VEC2"
    },
    {
      "bufferView": 0,
      "componentType": 5125,
      "count": 5334,
      "max": [
        1288
      ],
      "min": [
        0
      ],
      "type": "SCALAR"
    },
    {
      "bufferView": 2,
      "byteOffset": 30936,
      "componentType": 5126,
      "count": 1289,
      "max": [
        0.055862784385681152,
        0.11306177824735641,
        0.015517830848693848
      ],
      "min": [
        -0.05613214522600174,
        -0.11265549063682556,
        -0.014704093337059021
      ],
      "type": "VEC3"
    },
    {
      "bufferView": 2,
      "byteOffset": 46404,
      "componentType": 5126,
      "count": 1289,
      "max": [
        0.99780726432800293,
        1,
        1
      ],
      "min": [
        -0.99996298551559448,
        -1,
        -0.99999827146530151
      ],
      "type": "VEC3"
    },
    {
      "bufferView": 3,
      "byteOffset": 20624,
      "componentType": 5126,
      "count": 1289,
      "max": [
        1,
        0.99998503923416138,
        0.99998295307159424,
        1
      ],
      "min": [
        -0.99999922513961792,
        -0.99999541044235229,
        -0.99997687339782715,
        1
      ],
      "type": "VEC4"
    },
    {
      "bufferView": 1,
      "byteOffset": 10312,
      "componentType": 5126,
      "count": 1289,
      "max": [
        0.99980854988098145,
        0.91835278272628784
      ],
      "min": [
        0.0001914108288474381,
        0.0001914108288474381
      ],
      "type": "VEC2"
    },
    {
      "bufferView": 0,
      "byteOffset": 21336,
      "componentType": 5125,
      "count": 5334,
      "max": [
        1288
      ],
      "min": [
        0
      ],
      "type": "SCALAR"
    }
  ],
  "asset": {
    "extras": {
      "author": "Mateusz Woliński (https://sketchfab.com/jeandiz)",
      "license": "CC-BY-4.0 (http://creativecommons.org/licenses/by/4.0/)",
      "source": "https://sketchfab.com/3d-models/mre-sealed-package-1f29140d59dd4d41b553217771477293",
      "title": "MRE Sealed Package"
    },
    "generator": "Sketchfab-10.23.0",
    "version": "2.0"
  },
  "bufferViews": [
    {
      "buffer": 0,
      "byteLength": 42672,
      "byteOffset": 0,
      "name": "floatBufferViews",
      "target": 34963
    },
    {
      "buffer": 0,
      "byteLength": 20624,
      "byteOffset": 42672,
      "byteStride": 8,
      "name": "floatBufferViews",
      "target": 34962
    },
    {
      "buffer": 0,
      "byteLength": 61872,
      "byteOffset": 63296,
      "byteStride": 12,
      "name": "floatBufferViews",
      "target": 34962
    },
    {
      "buffer": 0,
      "byteLength": 41248,
      "byteOffset": 125168,
      "byteStride": 16,
      "name": "floatBufferViews",
      "target": 34962
    }
  ],
  "buffers": [
    {
      "byteLength": 166416,
      "uri": "scene.bin"
    }
  ],
  "images": [
    {
      "uri": "textures/material_baseColor.jpeg"
    },
    {
      "uri": "textures/material_metallicRoughness.png"
    },
    {
      "uri": "textures/material_normal.png"
    },
    {
      "uri": "textures/MRE2_baseColor.jpeg"
    },
    {
      "uri": "textures/MRE2_metallicRoughness.png"
    }
  ],
  "materials": [
    {
      "doubleSided": true,
      "emissiveFactor": [
        0,
        0,
        0
      ],
      "name": "material",
      "normalTexture": {
        "index": 2,
        "scale": 1,
        "texCoord": 0
      },
      "pbrMetallicRoughness": {
        "baseColorFactor": [
          1,
          1,
          1,
          1
        ],
        "baseColorTexture": {
          "index": 0,
          "texCoord": 0
        },
        "metallicFactor": 1,
        "metallicRoughnessTexture": {
          "index": 1,
          "texCoord": 0
        },
        "roughnessFactor": 1
      }
    },
    {
      "doubleSided": true,
      "emissiveFactor": [
        0,
        0,
        0
      ],
      "name": "MRE2",
      "normalTexture": {
        "index": 2,
        "scale": 1,
        "texCoord": 0
      },
      "pbrMetallicRoughness": {
        "baseColorFactor": [
          1,
          1,
          1,
          1
        ],
        "baseColorTexture": {
          "index": 3,
          "texCoord": 0
        },
        "metallicFactor": 1,
        "metallicRoughnessTexture": {
          "index": 4,
          "texCoord": 0
        },
        "roughnessFactor": 1
      }
    }
  ],
  "meshes": [
    {
      "name": "MRE_MRE_0",
      "primitives": [
        {
          "attributes": {
            "NORMAL": 1,
            "POSITION": 0,
            "TANGENT": 2,
            "TEXCOORD_0": 3
          },
          "indices": 4,
          "material": 0,
          "mode": 4
        }
      ]
    },
    {
      "name": "MRE.001_MRE2_0",
      "primitives": [
        {
          "attributes": {
            "NORMAL": 6,
            "POSITION": 5,
            "TANGENT": 7,
            "TEXCOORD_0": 8
          },
          "indices": 9,
          "material": 1,
          "mode": 4
        }
      ]
    }
  ],
  "nodes": [
    {
      "children": [
        1
      ],
      "name": "RootNode (gltf orientation matrix)",
      "rotation": [
        -0.70710678118654746,
        -0,
        -0,
        0.70710678118654757
      ]
    },
    {
      "children": [
        2
      ],
      "name": "RootNode (model correction matrix)"
    },
    {
      "children": [
        3
      ],
      "matrix": [
        1,
        0,
        0,
        0,
        0,
        0,
        1,
        0,
        0,
        -1,
        0,
        0,
        0,
        0,
        0,
        1
      ],
      "name": "0a4209b6c844475982c5012c973ca8eb.fbx"
    },
    {
      "children": [
        4,
        6
      ],
      "name": "RootNode"
    },
    {
      "children": [
        5
      ],
      "matrix": [
        100,
        0,
        0,
        0,
        0,
        -1.6292067939183141e-05,
        -99.999999999998678,
        0,
        0,
        99.999999999998678,
        -1.6292067939183141e-05,
        0,
        3.3578683606029893e-16,
        1.5122494697570801,
        0.34793195128440857,
        1
      ],
      "name": "MRE"
    },
    {
      "mesh": 0,
      "name": "MRE_MRE_0"
    },
    {
      "children": [
        7
      ],
      "matrix": [
        74.689057792457021,
        24.16608150643788,
        61.947922892533022,
        0,
        61.186164867653694,
        11.49850859918573,
        -78.256229967861032,
        0,
        -26.034553544992267,
        96.352406411110692,
        -6.1981712125470763,
        0,
        -8.8442888259887695,
        2.6151363849639893,
        -4.7942419052124023,
        1
      ],
      "name": "MRE.001"
    },
    {
      "mesh": 1,
      "name": "MRE.001_MRE2_0"
    }
  ],
  "samplers": [
    {
      "magFilter": 9729,
      "minFilter": 9987,
      "wrapS": 10497,
      "wrapT": 10497
    }
  ],
  "scene": 0,
  "scenes": [
    {
      "name": "OSG_Scene",
      "nodes": [
        0
      ]
    }
  ],
  "textures": [
    {
      "sampler": 0,
      "source": 0
    },
    {
      "sampler": 0,
      "source": 1
    },
    {
      "sampler": 0,
      "source": 2
    },
    {
      "sampler": 0,
      "source": 3
    },
    {
      "sampler": 0,
      "source": 4
    }
  ]
}

